USFL
nRows=241
nColumns=2
inDegrees=yes
endheader
time	tib_ant_r	
2.99395	 79.264755	
3.02722	 79.293057	
3.06048	 79.277872	
3.09375	 79.288856	
3.12702	 79.288988	
3.16028	 79.326223	
3.19355	 79.296825	
3.22681	 79.282174	
3.26008	 79.277063	
3.29335	 79.310620	
3.32661	 79.357729	
3.35988	 79.381282	
3.39315	 79.452422	
3.42641	 79.496829	
3.45968	 79.507818	
3.49294	 79.507077	
3.52621	 79.508540	
3.55948	 79.554995	
3.59274	 79.568853	
3.62601	 79.592522	
3.65927	 79.604127	
3.69254	 79.636355	
3.72581	 79.632190	
3.75907	 79.654129	
3.79234	 79.640205	
3.8256	 79.645462	
3.85887	 79.651815	
3.89214	 79.639395	
3.9254	 79.659146	
3.95867	 79.583108	
3.99194	 79.582633	
4.0252	 79.640366	
4.05847	 79.656807	
4.09173	 79.732621	
4.125	 79.844347	
4.15827	 79.887552	
4.19153	 79.952057	
4.2248	 79.959943	
4.25806	 80.062174	
4.29133	 80.074148	
4.3246	 80.094033	
4.35786	 80.269122	
4.39113	 80.212464	
4.4244	 80.316128	
4.45766	 80.461779	
4.49093	 80.352294	
4.52419	 80.413090	
4.55746	 80.400414	
4.59073	 80.418152	
4.62399	 80.474442	
4.65726	 80.336371	
4.69052	 80.411791	
4.72379	 80.464052	
4.75706	 80.043466	
4.79032	 80.157587	
4.82359	 80.720025	
4.85685	 77.683006	
4.89012	 77.732936	
4.92339	 77.826825	
4.95665	 77.165857	
4.98992	 77.346057	
5.02319	 77.156905	
5.05645	 76.950683	
5.08972	 76.779287	
5.12298	 76.555971	
5.15625	 76.511706	
5.18952	 76.592919	
5.22278	 76.271940	
5.25605	 76.376964	
5.28931	 76.583866	
5.32258	 76.580846	
5.35585	 76.538408	
5.38911	 76.364214	
5.42238	 76.242581	
5.45565	 76.277536	
5.48891	 76.156778	
5.52218	 76.051783	
5.55544	 76.035637	
5.58871	 75.874752	
5.62198	 75.837233	
5.65524	 75.899924	
5.68851	 75.856472	
5.72177	 75.831958	
5.75504	 70.870286	
5.78831	 70.947506	
5.82157	 71.014290	
5.85484	 71.271050	
5.8881	 69.057413	
5.92137	 69.199316	
5.95464	 69.561297	
5.9879	 69.957669	
6.02117	 70.179175	
6.05444	 70.071106	
6.0877	 69.874158	
6.12097	 69.671638	
6.15423	 69.634977	
6.1875	 69.987128	
6.22077	 69.749529	
6.25403	 69.612399	
6.2873	 69.590936	
6.32056	 69.028997	
6.35383	 68.491091	
6.3871	 68.177754	
6.42036	 67.980234	
6.45363	 67.885993	
6.4869	 67.837939	
6.52016	 67.733200	
6.55343	 67.707417	
6.58669	 67.634085	
6.61996	 67.571593	
6.65323	 67.693564	
6.68649	 67.692472	
6.71976	 67.576978	
6.75302	 67.601880	
6.78629	 67.584807	
6.81956	 67.513377	
6.85282	 67.570193	
6.88609	 67.618607	
6.91935	 67.524627	
6.95262	 67.651350	
6.98589	 67.734737	
7.01915	 67.711542	
7.05242	 67.766393	
7.08569	 67.746129	
7.11895	 67.851872	
7.15222	 67.877802	
7.18548	 67.835047	
7.21875	 67.933937	
7.25202	 67.952747	
7.28528	 67.926290	
7.31855	 67.997907	
7.35181	 68.083734	
7.38508	 68.103893	
7.41835	 68.142788	
7.45161	 68.211378	
7.48488	 68.185151	
7.51815	 68.146990	
7.55141	 68.097108	
7.58468	 68.160994	
7.61794	 68.251596	
7.65121	 68.239913	
7.68448	 68.233431	
7.71774	 68.334515	
7.75101	 68.389097	
7.78427	 68.385460	
7.81754	 68.306377	
7.85081	 68.358766	
7.88407	 68.236255	
7.91734	 68.226225	
7.9506	 68.194610	
7.98387	 68.176465	
8.01714	 68.203020	
8.0504	 68.192002	
8.08367	 68.196482	
8.11694	 68.187476	
8.1502	 68.189032	
8.18347	 68.178873	
8.21673	 68.208578	
8.25	 68.099097	
8.28327	 68.175583	
8.31653	 68.039348	
8.3498	 67.981321	
8.38306	 67.918657	
8.41633	 67.913440	
8.4496	 67.876974	
8.48286	 67.897276	
8.51613	 67.869142	
8.5494	 67.866904	
8.58266	 67.863985	
8.61593	 67.841537	
8.64919	 67.854960	
8.68246	 67.859694	
8.71573	 67.922399	
8.74899	 67.925839	
8.78226	 67.960806	
8.81552	 67.905244	
8.84879	 67.889843	
8.88206	 67.860988	
8.91532	 67.919502	
8.94859	 67.975359	
8.98185	 67.953676	
9.01512	 67.960162	
9.04839	 67.978820	
9.08165	 67.975908	
9.11492	 67.972123	
9.14819	 68.016592	
9.18145	 68.033880	
9.21472	 68.031622	
9.24798	 68.061503	
9.28125	 68.033413	
9.31452	 68.100478	
9.34778	 68.113659	
9.38105	 68.117437	
9.41431	 68.045410	
9.44758	 68.077190	
9.48085	 68.102335	
9.51411	 68.133597	
9.54738	 68.140158	
9.58065	 68.135051	
9.61391	 68.133688	
9.64718	 68.140929	
9.68044	 68.154744	
9.71371	 68.124574	
9.74698	 68.076797	
9.78024	 68.094925	
9.81351	 68.214118	
9.84677	 68.223204	
9.88004	 68.204015	
9.91331	 68.290608	
9.94657	 68.190174	
9.97984	 72.000361	
10.0131	 71.906037	
10.0464	 78.749997	
10.0796	 78.742272	
10.1129	 78.776929	
10.1462	 79.106015	
10.1794	 79.464538	
10.2127	 79.479554	
10.246	 79.323229	
10.2792	 79.367692	
10.3125	 79.287667	
10.3458	 79.351806	
10.379	 79.509418	
10.4123	 79.670892	
10.4456	 79.763414	
10.4788	 79.767195	
10.5121	 79.709251	
10.5454	 79.669940	
10.5786	 79.697817	
10.6119	 79.791160	
10.6452	 79.889641	
10.6784	 79.950064	
10.7117	 79.928648	
10.745	 79.944537	
10.7782	 79.998007	
10.8115	 79.996956	
10.8448	 80.015165	
10.878	 80.080259	
10.9113	 80.131979	
10.9446	 80.153046	
10.9778	 80.213508	
